<svg id="Capa_1" data-name="Capa 1" xmlns="http://www.w3.org/2000/svg" viewBox="0 0 470.38 254.09">
  <defs>
    <style>
      .cls-1 {
        fill: #047835;
      }

      .cls-2 {
        fill: #7fbc03;
      }

      .cls-3 {
        fill: #006824;
      }
    </style>
  </defs>
  <g>
    <path class="cls-1" d="M290.18,29.22l-9.09,7.65c-.51,.43-1.03,.85-1.56,1.27-1.62,1.29-6.79,5.96-6.79,13.04,0,8.39,1.13,12.27,1.13,12.27,0,0,.16,2.91,6.46-3.39,5.07-5.07,12.66-10.67,15.42-12.65,.57-.41,1.14-.83,1.7-1.25,1.96-1.46,7.58-5.26,5.97,.5-.05,.17-.1,.35-.15,.52-1.57,5.39-4.13,10.45-7.47,14.96h0c-2.5,3.36-5.28,6.5-8.3,9.41-3.24,3.12-8.04,8.82-11.2,17.41-4.73,12.86,.01,20.17,.85,21.31,.09,.13,.18,.26,.28,.39,1.07,1.51,7.71,9.76,19.06,1.06,12.43-9.52,29.22-25.51,29.22-25.51,0,0,14.97-15.25,30.32-26.99,2.03-1.55,4.03-3.14,5.98-4.78,2.78-2.34,7.34-5.92,11.16-7.78,0,0,12.43-10.33,9.69,6.94-1.58,9.93-3.79,17.08-5.39,21.37-2.31,6.19-3.37,12.79-2.96,19.38,.27,4.48,1.21,9.09,3.51,12.36,.1,.14,.19,.27,.29,.4,5.6,7.63,15.28,11.09,24.51,8.98,3.36-.77,7.01-2.07,9.71-4.28,1.17-.95,2.37-1.88,3.6-2.76l14.35-10.24c3.34-2.38,6.59-4.88,9.74-7.5l11.41-9.47,6.48-5.44c1.7-1.43,3.31-2.96,4.82-4.6h0c1.6-1.74,2.85-3.78,3.59-6.02,.35-1.04,.6-2.14,.6-3.15v-8.72s0-2.91-5.97,0c-4.74,2.31-28.51,20.38-38.11,27.74-2.75,2.11-5.56,4.12-8.44,6.04l-5.35,3.57c-1.43,.95-3.03,1.61-4.73,1.88-2.72,.43-5.95-.06-4.88-5.33s4.35-13.22,6.72-18.53c3.03-6.8,4.76-14.12,4.95-21.56,.14-5.41-.5-11.23-2.96-15.77-5.71-10.53-12.6-12.85-13.85-13.19-.12-.03-.24-.06-.35-.1-1.3-.38-10.6-2.52-26,7.64-16.63,10.98-33.58,27.61-33.58,27.61,0,0-4.79,5.03-7.56,2.92-.86-.65-1.21-1.77-.99-2.82,.16-.76,.48-1.87,1.1-3.33,.41-.96,.91-1.88,1.46-2.77,1.22-1.96,4.2-8.19,1.31-18.7-3.55-12.91-15.18-12.75-15.18-12.75,0,0-7.91,0-24.54,12.75Z"/>
    <g>
      <path class="cls-2" d="M145.46,14.47c.53-.3,1.04-.63,1.54-.97,1.08-.73,3.33-1.5,5.32,2.48,2.74,5.49,12.43,31.96,12.43,31.96,0,0,10.33,27.44,12.43,29.54,0,0,5.97,13.72,17.92,25.67,11.95,11.95,26.15,3.55,26.15,3.55,0,0,10.49-5.97,23.41-25.51,8.38-12.67,15.53-26.97,19.52-35.46,1.65-3.51,3.19-7.06,4.63-10.66,1.99-4.99,6.05-14.43,9.43-17.81,3.15-3.15,4.91-4.76,5.72-5.48,.53-.47,1.2-.76,1.91-.79,1.09-.04,2.33,.52,1.6,3.61-.21,.9-.39,1.82-.56,2.73l-2.69,14.82c-1.09,6-2.45,11.94-4.09,17.81l-.6,2.14c-1.3,4.65-2.78,9.24-4.43,13.77l-6.72,18.39s-6.13,14.69-14.04,27.12c-6.91,10.87-13.34,17.41-14.84,18.89-.19,.19-.39,.38-.58,.57-1.81,1.81-13.34,12.66-29.62,12.66-6.91,0-13.76-2.34-19.56-5.21-8.12-4.01-15.33-9.65-21.3-16.47-5.12-5.85-12.43-14.92-16.38-23.09-.58-1.19-1.16-2.38-1.78-3.56-2.96-5.6-11.24-21.76-14.27-32.55l-1.95-5.76c-.5-1.47-1-2.93-1.57-4.38-.67-1.72-1.99-7.37,1.9-20.22,3.81-12.56,9.01-16.64,11.06-17.82Z"/>
      <ellipse class="cls-2" cx="213.91" cy="27.44" rx="21.55" ry="27.44"/>
    </g>
    <path class="cls-1" d="M81.29,45.36s11.62-4.84,16.47,0c0,0,1.45,5.49,7.43,5.49s12.75-8.72,12.75-8.72c0,0,1.45-8.39-2.26-14.37s-12.75-9.2-12.75-9.2c0,0-13.24-3.55-27.12,1.45-13.88,5-28.09,15.5-28.09,15.5,0,0-16.31,12.43-26.96,27.61S4.76,95.73,4.76,95.73c0,0-3.87,21.15,3.23,32.29,7.1,11.14,16.79,14.85,16.79,14.85,0,0,15.01,5.65,33.42-1.78,18.4-7.43,34.06-17.27,34.06-17.27l21.15-14.21,13.88-11.14,15.98-15.01,2.26-2.26s1.78-.48,3.23-5.81c1.05-3.86,1.26-10.94,1.29-14.55,0-.93-1.05-1.46-1.79-.91l-15.97,11.9-18.08,14.21-13.08,9.52-12.43,8.07-15.82,8.72-17.27,7.26s-16.79,5.33-25.67,.32c-8.88-5-3.23-19.05-3.23-19.05,0,0,8.72-19.7,20.5-31.48s17.92-15.5,17.92-15.5c0,0,9.85-6.78,16.14-8.56Z"/>
  </g>
  <g>
    <path class="cls-3" d="M0,196.57c0-7.29,5.54-12.24,12.08-12.24,7.03,0,10.13,4.52,10.89,7.89l-4.92,1.55c-.36-1.62-1.85-4.36-5.97-4.36-3.14,0-6.67,2.24-6.67,7.16,0,4.39,3.23,6.93,6.73,6.93,4.06,0,5.68-2.71,6.14-4.39l4.98,1.42c-.76,3.23-3.86,8.18-11.12,8.18-6.73,0-12.15-4.85-12.15-12.15Z"/>
    <path class="cls-3" d="M42.24,200c0,5.08-3.8,8.71-8.71,8.71s-8.71-3.63-8.71-8.71,3.83-8.68,8.71-8.68,8.71,3.6,8.71,8.68Zm-5.02,0c0-2.77-1.78-4.06-3.7-4.06s-3.7,1.29-3.7,4.06,1.82,4.09,3.7,4.09,3.7-1.32,3.7-4.09Z"/>
    <path class="cls-3" d="M55.41,196.77c-.56-.13-1.09-.17-1.58-.17-2.01,0-3.83,1.19-3.83,4.46v7.16h-5.02v-16.4h4.85v2.21c.86-1.85,2.94-2.38,4.26-2.38,.5,0,.99,.07,1.32,.16v4.95Z"/>
    <path class="cls-3" d="M57.66,214.49v-22.67h4.85v1.68c.69-1.06,2.48-2.08,4.82-2.08,4.75,0,7.62,3.63,7.62,8.55s-3.23,8.61-7.82,8.61c-2.11,0-3.7-.73-4.46-1.65v7.56h-5.02Zm8.65-18.55c-1.95,0-3.7,1.32-3.7,4.06s1.75,4.09,3.7,4.09,3.73-1.35,3.73-4.09-1.75-4.06-3.73-4.06Z"/>
    <path class="cls-3" d="M94.45,200c0,5.08-3.8,8.71-8.71,8.71s-8.71-3.63-8.71-8.71,3.83-8.68,8.71-8.68,8.71,3.6,8.71,8.68Zm-5.02,0c0-2.77-1.78-4.06-3.7-4.06s-3.7,1.29-3.7,4.06,1.82,4.09,3.7,4.09,3.7-1.32,3.7-4.09Z"/>
    <path class="cls-3" d="M107.62,196.77c-.56-.13-1.09-.17-1.58-.17-2.01,0-3.83,1.19-3.83,4.46v7.16h-5.02v-16.4h4.85v2.21c.86-1.85,2.94-2.38,4.26-2.38,.5,0,.99,.07,1.32,.16v4.95Z"/>
    <path class="cls-3" d="M113.92,198.75l3.86-.59c.89-.13,1.19-.56,1.19-1.12,0-.96-.83-1.78-2.41-1.78-1.75,0-2.71,1.19-2.81,2.41l-4.36-.89c.2-2.34,2.38-5.45,7.19-5.45,5.31,0,7.26,2.97,7.26,6.34v8.02c0,1.29,.16,2.38,.2,2.54h-4.52c-.03-.13-.17-.73-.17-1.85-.86,1.39-2.44,2.31-4.62,2.31-3.6,0-5.68-2.38-5.68-4.98,0-2.9,2.15-4.55,4.85-4.95Zm5.05,3.04v-.73l-3.1,.5c-1.06,.17-1.85,.66-1.85,1.82,0,.86,.56,1.68,1.95,1.68,1.49,0,3-.73,3-3.27Z"/>
    <path class="cls-3" d="M131.42,200.03c0,2.61,1.75,4.06,3.83,4.06,1.95,0,3.04-1.22,3.4-2.44l4.42,1.35c-.73,2.87-3.43,5.71-7.82,5.71-4.88,0-8.81-3.6-8.81-8.68s3.83-8.71,8.65-8.71c4.52,0,7.16,2.77,7.89,5.71l-4.49,1.35c-.36-1.25-1.35-2.44-3.3-2.44-2.08,0-3.76,1.45-3.76,4.09Z"/>
    <path class="cls-3" d="M162.21,200c0,5.08-3.8,8.71-8.71,8.71s-8.71-3.63-8.71-8.71,3.83-8.68,8.71-8.68,8.71,3.6,8.71,8.68Zm-5.02,0c0-2.77-1.78-4.06-3.7-4.06s-3.7,1.29-3.7,4.06,1.82,4.09,3.7,4.09,3.7-1.32,3.7-4.09Zm-2.11-10.13h-3.99l3.04-4.98h5.61l-4.65,4.98Z"/>
    <path class="cls-3" d="M169.96,208.22h-5.02v-16.4h4.85v1.88c.89-1.55,2.9-2.31,4.59-2.31,4.13,0,5.97,2.94,5.97,6.53v10.3h-5.02v-9.44c0-1.62-.86-2.84-2.67-2.84-1.65,0-2.71,1.22-2.71,2.87v9.41Z"/>
    <path class="cls-3" d="M190.46,199.77v-14.95h5.21v14.52c0,2.84,1.58,4.26,4.06,4.26s4.06-1.42,4.06-4.26v-14.52h5.21v14.95c0,5.87-4.13,8.98-9.27,8.98s-9.27-3.1-9.27-8.98Z"/>
    <path class="cls-3" d="M217.65,208.22h-5.02v-16.4h4.85v1.88c.89-1.55,2.9-2.31,4.59-2.31,4.13,0,5.97,2.94,5.97,6.53v10.3h-5.02v-9.44c0-1.62-.86-2.84-2.67-2.84-1.65,0-2.71,1.22-2.71,2.87v9.41Z"/>
    <path class="cls-3" d="M233.82,183.86c1.65,0,2.97,1.32,2.97,2.94s-1.32,2.94-2.97,2.94-2.9-1.32-2.9-2.94,1.32-2.94,2.9-2.94Zm-2.48,24.36v-16.4h5.02v16.4h-5.02Z"/>
    <path class="cls-3" d="M246.59,196.04v12.18h-5.02v-12.18h-2.61v-4.22h2.61v-1.42c0-3.76,2.28-6.34,6.27-6.34,.83,0,1.85,.13,2.31,.36v4.09c-.23-.07-.69-.17-1.42-.17-.86,0-2.15,.4-2.15,2.05v1.42h11.06v16.4h-5.02v-12.18h-6.04Zm8.51-12.18c1.65,0,2.97,1.29,2.97,2.94s-1.32,2.94-2.97,2.94-2.9-1.32-2.9-2.94,1.32-2.94,2.9-2.94Z"/>
    <path class="cls-3" d="M265.34,200.03c0,2.61,1.75,4.06,3.83,4.06,1.95,0,3.04-1.22,3.4-2.44l4.42,1.35c-.73,2.87-3.43,5.71-7.82,5.71-4.88,0-8.81-3.6-8.81-8.68s3.83-8.71,8.65-8.71c4.52,0,7.16,2.77,7.89,5.71l-4.49,1.35c-.36-1.25-1.35-2.44-3.3-2.44-2.08,0-3.76,1.45-3.76,4.09Z"/>
    <path class="cls-3" d="M283.59,198.75l3.86-.59c.89-.13,1.19-.56,1.19-1.12,0-.96-.82-1.78-2.41-1.78-1.75,0-2.71,1.19-2.81,2.41l-4.36-.89c.2-2.34,2.38-5.45,7.19-5.45,5.31,0,7.26,2.97,7.26,6.34v8.02c0,1.29,.16,2.38,.2,2.54h-4.52c-.03-.13-.17-.73-.17-1.85-.86,1.39-2.44,2.31-4.62,2.31-3.6,0-5.68-2.38-5.68-4.98,0-2.9,2.15-4.55,4.85-4.95Zm5.05,3.04v-.73l-3.1,.5c-1.06,.17-1.85,.66-1.85,1.82,0,.86,.56,1.68,1.95,1.68,1.49,0,3-.73,3-3.27Z"/>
    <path class="cls-3" d="M313.46,205.28c0,1.49,.1,2.57,.13,2.94h-4.82c-.03-.2-.13-.92-.13-1.58-.76,1.12-2.41,1.95-4.39,1.95-4.62,0-8.12-3.56-8.12-8.61s3.3-8.55,7.95-8.55c2.81,0,4.03,1.06,4.42,1.68v-8.78h4.95v20.96Zm-8.58-1.19c1.95,0,3.7-1.39,3.7-4.09s-1.75-4.06-3.7-4.06-3.7,1.32-3.7,4.06,1.75,4.09,3.7,4.09Z"/>
    <path class="cls-3" d="M321.11,198.75l3.86-.59c.89-.13,1.19-.56,1.19-1.12,0-.96-.82-1.78-2.41-1.78-1.75,0-2.71,1.19-2.81,2.41l-4.36-.89c.2-2.34,2.38-5.45,7.19-5.45,5.31,0,7.26,2.97,7.26,6.34v8.02c0,1.29,.16,2.38,.2,2.54h-4.52c-.03-.13-.17-.73-.17-1.85-.86,1.39-2.44,2.31-4.62,2.31-3.6,0-5.68-2.38-5.68-4.98,0-2.9,2.15-4.55,4.85-4.95Zm5.05,3.04v-.73l-3.1,.5c-1.06,.17-1.85,.66-1.85,1.82,0,.86,.56,1.68,1.95,1.68,1.49,0,3-.73,3-3.27Z"/>
    <path class="cls-3" d="M356.19,208.22l-9.64-15.38v15.38h-5.18v-23.4h6.34l8.78,14.22v-14.22h5.21v23.4h-5.51Z"/>
    <path class="cls-3" d="M369.76,198.75l3.86-.59c.89-.13,1.19-.56,1.19-1.12,0-.96-.82-1.78-2.41-1.78-1.75,0-2.71,1.19-2.81,2.41l-4.36-.89c.2-2.34,2.38-5.45,7.19-5.45,5.31,0,7.26,2.97,7.26,6.34v8.02c0,1.29,.17,2.38,.2,2.54h-4.52c-.03-.13-.17-.73-.17-1.85-.86,1.39-2.44,2.31-4.62,2.31-3.6,0-5.68-2.38-5.68-4.98,0-2.9,2.15-4.55,4.85-4.95Zm5.05,3.04v-.73l-3.1,.5c-1.06,.17-1.85,.66-1.85,1.82,0,.86,.56,1.68,1.95,1.68,1.49,0,3-.73,3-3.27Z"/>
    <path class="cls-3" d="M387.25,200.03c0,2.61,1.75,4.06,3.83,4.06,1.95,0,3.04-1.22,3.4-2.44l4.42,1.35c-.73,2.87-3.43,5.71-7.82,5.71-4.88,0-8.81-3.6-8.81-8.68s3.83-8.71,8.65-8.71c4.52,0,7.16,2.77,7.89,5.71l-4.49,1.35c-.36-1.25-1.35-2.44-3.3-2.44-2.08,0-3.76,1.45-3.76,4.09Z"/>
    <path class="cls-3" d="M403.78,183.86c1.65,0,2.97,1.32,2.97,2.94s-1.32,2.94-2.97,2.94-2.9-1.32-2.9-2.94,1.32-2.94,2.9-2.94Zm-2.48,24.36v-16.4h5.02v16.4h-5.02Z"/>
    <path class="cls-3" d="M426.49,200c0,5.08-3.8,8.71-8.71,8.71s-8.71-3.63-8.71-8.71,3.83-8.68,8.71-8.68,8.71,3.6,8.71,8.68Zm-5.02,0c0-2.77-1.78-4.06-3.7-4.06s-3.7,1.29-3.7,4.06,1.82,4.09,3.7,4.09,3.7-1.32,3.7-4.09Z"/>
    <path class="cls-3" d="M434.24,208.22h-5.02v-16.4h4.85v1.88c.89-1.55,2.9-2.31,4.59-2.31,4.13,0,5.97,2.94,5.97,6.53v10.3h-5.02v-9.44c0-1.62-.86-2.84-2.67-2.84-1.65,0-2.71,1.22-2.71,2.87v9.41Z"/>
    <path class="cls-3" d="M452.13,198.75l3.86-.59c.89-.13,1.19-.56,1.19-1.12,0-.96-.82-1.78-2.41-1.78-1.75,0-2.71,1.19-2.81,2.41l-4.36-.89c.2-2.34,2.38-5.45,7.19-5.45,5.31,0,7.26,2.97,7.26,6.34v8.02c0,1.29,.17,2.38,.2,2.54h-4.52c-.03-.13-.17-.73-.17-1.85-.86,1.39-2.44,2.31-4.62,2.31-3.6,0-5.68-2.38-5.68-4.98,0-2.9,2.15-4.55,4.85-4.95Zm5.05,3.04v-.73l-3.1,.5c-1.06,.17-1.85,.66-1.85,1.82,0,.86,.56,1.68,1.95,1.68,1.49,0,3-.73,3-3.27Z"/>
    <path class="cls-3" d="M465.37,208.22v-23.89h5.02v23.89h-5.02Z"/>
    <path class="cls-3" d="M83.84,244.88c0,1.49,.1,2.57,.13,2.94h-4.82c-.03-.2-.13-.92-.13-1.58-.76,1.12-2.41,1.95-4.39,1.95-4.62,0-8.12-3.56-8.12-8.61s3.3-8.55,7.95-8.55c2.81,0,4.03,1.06,4.42,1.68v-8.78h4.95v20.96Zm-8.58-1.19c1.95,0,3.7-1.39,3.7-4.09s-1.75-4.06-3.7-4.06-3.7,1.32-3.7,4.06,1.75,4.09,3.7,4.09Z"/>
    <path class="cls-3" d="M102.72,243.1c-.79,2.84-3.4,5.21-7.56,5.21-4.52,0-8.55-3.23-8.55-8.75s3.93-8.65,8.18-8.65c5.08,0,8.22,3.14,8.22,8.42,0,.69-.07,1.45-.1,1.55h-11.42c.1,1.85,1.78,3.17,3.73,3.17,1.82,0,2.84-.86,3.3-2.15l4.19,1.19Zm-4.55-5.45c-.07-1.25-.92-2.77-3.3-2.77-2.11,0-3.17,1.55-3.27,2.77h6.57Z"/>
    <path class="cls-3" d="M112.79,247.82v-23.4h14.82v4.92h-9.6v4.46h8.71v4.59h-8.71v4.49h9.64v4.95h-14.85Z"/>
    <path class="cls-3" d="M147.54,244.88c0,1.49,.1,2.57,.13,2.94h-4.82c-.03-.2-.13-.92-.13-1.58-.76,1.12-2.41,1.95-4.39,1.95-4.62,0-8.12-3.56-8.12-8.61s3.3-8.55,7.95-8.55c2.81,0,4.03,1.06,4.42,1.68v-8.78h4.95v20.96Zm-8.58-1.19c1.95,0,3.7-1.39,3.7-4.09s-1.75-4.06-3.7-4.06-3.7,1.32-3.7,4.06,1.75,4.09,3.7,4.09Z"/>
    <path class="cls-3" d="M161.5,246.17c-.86,1.42-2.74,2.01-4.39,2.01-3.99,0-6.24-2.9-6.24-6.4v-10.36h5.02v9.31c0,1.58,.86,2.84,2.64,2.84,1.68,0,2.74-1.16,2.74-2.81v-9.34h5.02v13.47c0,1.49,.13,2.67,.17,2.94h-4.82c-.07-.3-.13-1.22-.13-1.65Z"/>
    <path class="cls-3" d="M173.97,239.64c0,2.61,1.75,4.06,3.83,4.06,1.95,0,3.04-1.22,3.4-2.44l4.42,1.35c-.73,2.87-3.43,5.71-7.82,5.71-4.88,0-8.81-3.6-8.81-8.68s3.83-8.71,8.65-8.71c4.52,0,7.16,2.77,7.89,5.71l-4.49,1.35c-.36-1.25-1.35-2.44-3.3-2.44-2.08,0-3.76,1.45-3.76,4.09Z"/>
    <path class="cls-3" d="M192.22,238.35l3.86-.59c.89-.13,1.19-.56,1.19-1.12,0-.96-.83-1.78-2.41-1.78-1.75,0-2.71,1.19-2.81,2.41l-4.36-.89c.2-2.34,2.38-5.45,7.19-5.45,5.31,0,7.26,2.97,7.26,6.34v8.02c0,1.29,.16,2.38,.2,2.54h-4.52c-.03-.13-.17-.73-.17-1.85-.86,1.39-2.44,2.31-4.62,2.31-3.6,0-5.68-2.38-5.68-4.98,0-2.9,2.15-4.55,4.85-4.95Zm5.05,3.04v-.73l-3.1,.5c-1.06,.17-1.85,.66-1.85,1.82,0,.86,.56,1.68,1.95,1.68,1.49,0,3-.73,3-3.27Z"/>
    <path class="cls-3" d="M209.71,239.64c0,2.61,1.75,4.06,3.83,4.06,1.95,0,3.04-1.22,3.4-2.44l4.42,1.35c-.73,2.87-3.43,5.71-7.82,5.71-4.88,0-8.81-3.6-8.81-8.68s3.83-8.71,8.65-8.71c4.52,0,7.16,2.77,7.89,5.71l-4.49,1.35c-.36-1.25-1.35-2.44-3.3-2.44-2.08,0-3.76,1.45-3.76,4.09Z"/>
    <path class="cls-3" d="M226.25,223.46c1.65,0,2.97,1.32,2.97,2.94s-1.32,2.94-2.97,2.94-2.9-1.32-2.9-2.94,1.32-2.94,2.9-2.94Zm-2.48,24.36v-16.4h5.02v16.4h-5.02Z"/>
    <path class="cls-3" d="M248.95,239.6c0,5.08-3.8,8.71-8.71,8.71s-8.71-3.63-8.71-8.71,3.83-8.68,8.71-8.68,8.71,3.6,8.71,8.68Zm-5.02,0c0-2.77-1.78-4.06-3.7-4.06s-3.7,1.29-3.7,4.06,1.82,4.09,3.7,4.09,3.7-1.32,3.7-4.09Zm-2.11-10.13h-3.99l3.04-4.98h5.61l-4.65,4.98Z"/>
    <path class="cls-3" d="M256.71,247.82h-5.02v-16.4h4.85v1.88c.89-1.55,2.9-2.31,4.59-2.31,4.13,0,5.97,2.94,5.97,6.53v10.3h-5.02v-9.44c0-1.62-.86-2.84-2.67-2.84-1.65,0-2.71,1.22-2.71,2.87v9.41Z"/>
    <path class="cls-3" d="M289.32,231.48c-.17-1.09-1.06-2.94-3.89-2.94-1.95,0-3.2,1.22-3.2,2.51,0,1.12,.69,1.95,2.31,2.24l3.14,.59c4.46,.83,6.77,3.7,6.77,7.03,0,3.66-3.07,7.39-8.65,7.39-6.47,0-9.24-4.19-9.57-7.49l4.79-1.15c.2,2.15,1.65,4.03,4.85,4.03,2.05,0,3.3-.99,3.3-2.44,0-1.19-.96-2.05-2.51-2.34l-3.2-.59c-3.96-.76-6.37-3.4-6.37-6.86,0-4.42,3.89-7.52,8.38-7.52,5.84,0,8.05,3.5,8.55,6.24l-4.69,1.32Z"/>
    <path class="cls-3" d="M307.76,246.17c-.86,1.42-2.74,2.01-4.39,2.01-3.99,0-6.24-2.9-6.24-6.4v-10.36h5.02v9.31c0,1.58,.86,2.84,2.64,2.84,1.68,0,2.74-1.16,2.74-2.81v-9.34h5.02v13.47c0,1.49,.13,2.67,.17,2.94h-4.82c-.07-.3-.13-1.22-.13-1.65Z"/>
    <path class="cls-3" d="M315.98,254.09v-22.67h4.85v1.68c.69-1.06,2.48-2.08,4.82-2.08,4.75,0,7.62,3.63,7.62,8.55s-3.23,8.61-7.82,8.61c-2.11,0-3.7-.73-4.46-1.65v7.56h-5.02Zm8.65-18.55c-1.95,0-3.7,1.32-3.7,4.06s1.75,4.09,3.7,4.09,3.73-1.35,3.73-4.09-1.75-4.06-3.73-4.06Z"/>
    <path class="cls-3" d="M351.46,243.1c-.79,2.84-3.4,5.21-7.56,5.21-4.52,0-8.55-3.23-8.55-8.75s3.93-8.65,8.19-8.65c5.08,0,8.22,3.14,8.22,8.42,0,.69-.07,1.45-.1,1.55h-11.42c.1,1.85,1.78,3.17,3.73,3.17,1.82,0,2.84-.86,3.3-2.15l4.19,1.19Zm-4.55-5.45c-.07-1.25-.92-2.77-3.3-2.77-2.11,0-3.17,1.55-3.27,2.77h6.57Z"/>
    <path class="cls-3" d="M364.92,236.37c-.56-.13-1.09-.17-1.58-.17-2.01,0-3.83,1.19-3.83,4.46v7.16h-5.02v-16.4h4.85v2.21c.86-1.85,2.94-2.38,4.26-2.38,.5,0,.99,.07,1.32,.17v4.95Z"/>
    <path class="cls-3" d="M369.64,223.46c1.65,0,2.97,1.32,2.97,2.94s-1.32,2.94-2.97,2.94-2.9-1.32-2.9-2.94,1.32-2.94,2.9-2.94Zm-2.48,24.36v-16.4h5.02v16.4h-5.02Z"/>
    <path class="cls-3" d="M392.35,239.6c0,5.08-3.8,8.71-8.71,8.71s-8.71-3.63-8.71-8.71,3.83-8.68,8.71-8.68,8.71,3.6,8.71,8.68Zm-5.02,0c0-2.77-1.78-4.06-3.7-4.06s-3.7,1.29-3.7,4.06,1.82,4.09,3.7,4.09,3.7-1.32,3.7-4.09Z"/>
    <path class="cls-3" d="M405.52,236.37c-.56-.13-1.09-.17-1.58-.17-2.01,0-3.83,1.19-3.83,4.46v7.16h-5.02v-16.4h4.85v2.21c.86-1.85,2.94-2.38,4.26-2.38,.5,0,.99,.07,1.32,.17v4.95Z"/>
  </g>
</svg>
